<svg xmlns="http://www.w3.org/2000/svg" viewBox="0 0 470 541.72"><defs><style>.cls-1{fill:#c49ff4;}.cls-2{fill:#9e005d;}.cls-3{fill:#acdd31;}</style></defs><title>Icon</title><g id="Layer_2" data-name="Layer 2"><g id="Layer_1-2" data-name="Layer 1"><polygon class="cls-1" points="470 135.25 373.45 136.19 264.7 219.91 294.03 270.71 420.91 218.39 470 135.25"/><polygon class="cls-1" points="0.43 406.35 96.97 405.41 205.73 321.69 176.4 270.89 49.52 323.21 0.43 406.35"/><polygon class="cls-1" points="0 135 49.09 218.14 175.97 270.47 205.3 219.66 96.55 135.94 0 135"/><polygon class="cls-1" points="469.36 405.98 420.27 322.84 293.39 270.52 264.06 321.32 372.81 405.05 469.36 405.98"/><polygon class="cls-1" points="235.17 0 187.71 84.08 205.84 220.13 264.5 220.13 282.63 84.08 235.17 0"/><polygon class="cls-1" points="235.17 541.72 282.63 457.64 264.5 321.59 205.84 321.59 187.71 457.64 235.17 541.72"/><path class="cls-2" d="M235.11,12.39c1.79,43.08,2.72,86.16,3.36,129.23.4,21.54.49,43.08.72,64.62l.24,64.62-.23,64.62-.3,32.31-.16,16.15-.26,16.16c-.63,43.08-1.57,86.15-3.37,129.23-1.8-43.08-2.74-86.15-3.37-129.23l-.25-16.16-.16-16.15L231,335.48l-.23-64.62.24-64.62c.24-21.54.33-43.08.72-64.62C232.39,98.55,233.32,55.47,235.11,12.39Z"/><path class="cls-2" d="M11.27,141.62c38.2,20,76,40.73,113.6,61.71,18.85,10.43,37.55,21.12,56.32,31.69l56.08,32.1,55.85,32.51L321,316.05l13.91,8.21,13.86,8.3c37,22.09,73.83,44.44,110.24,67.54-38.21-20-76-40.71-113.61-61.7l-14.12-7.86-14.07-7.94L289,306.71,233,274.6l-55.84-32.52c-18.54-11-37.14-21.81-55.6-32.93C84.52,187.06,47.68,164.71,11.27,141.62Z"/><path class="cls-2" d="M10.77,399.6C47.19,376.52,84,354.17,121,332.08c18.45-11.12,37.06-22,55.6-32.94l55.84-32.51,56.07-32.11,28.14-15.89,14.07-7.94,14.11-7.86c37.63-21,75.41-41.72,113.61-61.7-36.41,23.1-73.24,45.45-110.23,67.54L334.36,217l-13.91,8.22L292.62,241.6l-55.84,32.51-56.08,32.1c-18.77,10.57-37.47,21.26-56.32,31.68C86.75,358.88,49,379.61,10.77,399.6Z"/><polygon class="cls-3" points="293.96 270.84 264.55 219.9 205.74 219.9 176.33 270.84 205.74 321.78 264.55 321.78 293.96 270.84"/></g></g></svg>